<svg xmlns="http://www.w3.org/2000/svg" xmlns:xlink="http://www.w3.org/1999/xlink" width="133" height="144" viewBox="0 0 133 144"><defs><clipPath id="a"><path d="M0,0H8.83V9.24H0Z" transform="translate(0.853 0.751)" fill="none"/></clipPath><clipPath id="b"><path d="M0,0H6.065V8.981H0Z" transform="translate(0.015 0.387)" fill="none"/></clipPath><clipPath id="c"><path d="M0,143H133V0H0Z" transform="translate(0 1)" fill="none"/></clipPath></defs><path d="M2.591,67.76a21.309,21.309,0,0,1,.7,2.612c.118.851.737,1.364,1.118,2.031a15.3,15.3,0,0,0,4.278,4.5A10.954,10.954,0,0,0,12.1,78.65c.647.191,1.223.617,1.869.814a7.42,7.42,0,0,0,1.843.275,43.2,43.2,0,0,0,5.354.1,13.822,13.822,0,0,0,3.6-1.065,9.438,9.438,0,0,0,2.527-1.313,29.769,29.769,0,0,0,2.98-2.862,10.667,10.667,0,0,0,1.331-1.876c-.474.4-.964.79-1.419,1.216a15.446,15.446,0,0,1-6.26,3.6,15.193,15.193,0,0,1-6.55.259,14.617,14.617,0,0,1-6.966-3.339,35.833,35.833,0,0,1-3.915-4,27.114,27.114,0,0,1-3.79-5.975A20.416,20.416,0,0,1,.3,56.547a51.725,51.725,0,0,1-.24-6.561,34.87,34.87,0,0,1,.952-6.144,55.317,55.317,0,0,1,2.032-6.755,27.369,27.369,0,0,1,5.037-8.853,41.408,41.408,0,0,1,4.689-4.641,14.224,14.224,0,0,1,6.783-2.939c3.491-.555,6.949-.567,10.128,1.265A13.587,13.587,0,0,1,34.746,26.9a19.081,19.081,0,0,1,1.87,4.261,15.138,15.138,0,0,1,.612,3.411,11.665,11.665,0,0,1-.52,5.2,5.992,5.992,0,0,1-.694,1.281,1.548,1.548,0,0,1-1.926.532,13.45,13.45,0,0,1-4.633-2.73c-.152-.13-.3-.268-.391-.349a8.65,8.65,0,0,0-.288-8.206A6.652,6.652,0,0,0,21.5,26.476c3.193.77,6.089,1.9,7.049,5.459-.079.061-.157.122-.236.182a20.8,20.8,0,0,0-1.2-2.087,5.345,5.345,0,0,0-1.14-.905c-.136-.1-.266-.214-.425-.341l-.565.5c-.025-.419-.046-.742-.066-1.094-.492-.043-1.176-.094-1.858-.176-.087-.011-.157-.182-.326-.4-.759,0-1.718.029-2.672-.017-.326-.017-.547.351-1,.085-.252-.148-.877.259-1.3.483-1.782.943-3.728,1.629-5.194,3.082a28.805,28.805,0,0,0-2.688,3,31.509,31.509,0,0,0-4.8,9.646,30.517,30.517,0,0,0-1.5,7.314,39.482,39.482,0,0,0-.119,5.021A21.833,21.833,0,0,0,7.651,67.9a36.47,36.47,0,0,0,3.533,4.067,13.632,13.632,0,0,0,2.379,1.6,10.637,10.637,0,0,0,7.1,1.943,9.972,9.972,0,0,0,4.842-2.084,24.555,24.555,0,0,0,6.63-8.26,39.787,39.787,0,0,0,3.08-7.167c.815-2.585,1.7-5.154,2.369-7.777.607-2.367,1-4.793,1.428-7.2q.6-3.324,1.079-6.669c.231-1.6.364-3.2.569-4.8s.442-3.185.671-4.777c.224-1.57.407-3.146.7-4.7.35-1.879.8-3.741,1.2-5.61a1.662,1.662,0,0,0,0-.272c-1.38,0-2.751-.007-4.123,0-.266,0-.531.1-.8.1-4.932.006-9.865.058-14.8-.021-2.171-.035-4.339-.324-6.507-.517a42.957,42.957,0,0,1-9.053-1.669c-3.034-.953-5.8-2.439-7.3-5.455A7.222,7.222,0,0,1,.044,5.978a8.824,8.824,0,0,1,.5-4.106C1.377-.166,3.006-.516,4.667.705c1.319.971,2.47,2.171,3.765,3.332-.312.214-.517.373-.738.5-.762.445-.813.793-.116,1.337a5.325,5.325,0,0,0,1.414.874c2.235.8,4.458,1.662,6.748,2.257A36.17,36.17,0,0,0,24.817,10.3c2.088,0,4.176.251,6.263.384,1.482.1,2.965.205,4.447.268,2.573.11,5.148.189,7.722.277.45.015,1.014.183,1.319-.024s.312-.8.464-1.216a34.521,34.521,0,0,1,3.533-7.835A7.006,7.006,0,0,1,50.02.492,1.82,1.82,0,0,1,51.343.433a9.438,9.438,0,0,1,3.357,2c.4.309.705.74,1.093,1.066.508.426.36.785.036,1.242a31.218,31.218,0,0,0-3.336,5.635c-.13.3-.255.6-.4.946a3.025,3.025,0,0,0,.319.046c2.582.047,5.165.1,7.748.136,4.151.054,8.3.087,12.452.141,2.491.032,4.985.164,7.473.107,1.6-.036,3.154.283,4.731.275a31.005,31.005,0,0,1,4.59.568,4.84,4.84,0,0,1,1,.158A.967.967,0,0,1,91,13.786c-.026.549-.428.656-.87.584-3.2-.519-6.42-.194-9.63-.254-1.74-.032-3.483.06-5.223.128-1.8.071-3.6.175-5.4.269q-2.5.131-4.993.273-2.361.133-4.72.273l-7.013.409c-.741.044-1.487.064-2.222.154a.763.763,0,0,0-.549.409c-.978,3.9-1.992,7.8-2.864,11.723-1.027,4.626-1.858,9.3-2.9,13.918-.828,3.66-1.751,7.309-2.815,10.907-.83,2.808-1.913,5.542-2.944,8.287-.575,1.529-1.341,2.987-1.894,4.522a34.762,34.762,0,0,1-5.408,9.372A15.3,15.3,0,0,1,25.215,79.8a19.892,19.892,0,0,1-4.322,1.021,14.36,14.36,0,0,1-3.308.14,16.434,16.434,0,0,1-5.952-1.373,19.628,19.628,0,0,1-5.514-3.774A14.025,14.025,0,0,1,3.1,71.271a29.434,29.434,0,0,1-.72-2.921c-.033-.107.09-.265.213-.589" transform="translate(3 16)" fill="#fff"/><path d="M7.25,40c-.1,0-.2,0-.3-.01l-.18-.013a6.6,6.6,0,0,1-2.327-.438A4.052,4.052,0,0,1,2.926,37.97,18.78,18.78,0,0,1,.3,31.082a32.134,32.134,0,0,1-.21-6.866A37.939,37.939,0,0,1,2.93,11.93a37.267,37.267,0,0,1,4.5-8.044A15.164,15.164,0,0,1,11.321.194,1.237,1.237,0,0,1,11.963,0a.74.74,0,0,1,.165.017C14.409.541,16,2.027,17.145,4.693a13.883,13.883,0,0,1,.917,6.7,11.66,11.66,0,0,1-2.235,5.88c-.129.183-.257.369-.385.555a16.065,16.065,0,0,1-1.81,2.313,12.6,12.6,0,0,1-4.725,3.3,34.458,34.458,0,0,0-3.528,1.383,1.543,1.543,0,0,0-.66,1,16.4,16.4,0,0,0,.644,9.1c.424,1.131,1.074,1.681,1.988,1.681a4.348,4.348,0,0,0,2.066-.685,17.321,17.321,0,0,0,2.567-1.907A12.964,12.964,0,0,0,13.96,32c.592-.791,1.112-1.657,1.616-2.494.15-.249.3-.506.459-.757a2.916,2.916,0,0,0,.236-.548c.04-.112.082-.229.133-.357l.05.065c.112.145.174.223.246.32a36.259,36.259,0,0,1,2.213-11.747,41.627,41.627,0,0,1,3.838-7.72,25.877,25.877,0,0,1,4.647-5.9,15.555,15.555,0,0,1,2.4-1.642,1.171,1.171,0,0,1,.6-.179,1.276,1.276,0,0,1,1,.568,4.456,4.456,0,0,1,1.169,2.853,1.5,1.5,0,0,1-.4.925A32.84,32.84,0,0,0,27.252,11.2,41.007,41.007,0,0,0,23.4,19.356a45.726,45.726,0,0,0-1.735,6.376,27.867,27.867,0,0,0-.59,7.142,9.553,9.553,0,0,0,.275,1.719c.111.416.275.628.488.628.165,0,.358-.128.575-.38a18.9,18.9,0,0,0,2.017-2.669c1.41-2.383,2.643-4.606,3.769-6.8a5.587,5.587,0,0,0,.439-1.636c.041-.25.083-.508.139-.754.134-.6.26-1.2.382-1.793.266-1.282.541-2.608.908-3.883.752-2.6,1.612-5.218,2.444-7.749l.362-1.1a9.168,9.168,0,0,1,.8-1.64l.028-.049a1.583,1.583,0,0,1,1.355-.909,1.758,1.758,0,0,1,1,.352A16.713,16.713,0,0,1,37.85,7.728l.1.1a.991.991,0,0,1,.222,1.168l-.289.813c-.657,1.843-1.335,3.746-1.9,5.649-.959,3.261-1.808,6.541-2.441,9.034-.662,2.6-1.261,5.263-1.84,7.837l-.009.041a3.921,3.921,0,0,0,.028,1.472c.118-.2.241-.409.361-.607.262-.436.533-.886.763-1.348.488-.978.967-1.98,1.43-2.949.256-.537.521-1.09.784-1.633.092-.19.18-.389.265-.581a7.013,7.013,0,0,1,.725-1.365A19.019,19.019,0,0,0,38.716,19.1c.236-.817.481-1.661.763-2.474.359-1.036.664-2.111.96-3.151.2-.691.4-1.4.615-2.1.247-.791.511-1.591.766-2.366.4-1.225.822-2.49,1.181-3.75a27.427,27.427,0,0,0,.686-3.614C43.841.561,44.26.138,45.179.138l.134,0h.005a8.013,8.013,0,0,1,2.224.3A4.294,4.294,0,0,1,49.1,1.507c.419.41.23,1.013.079,1.5l0,.008c-.377,1.2-.782,2.418-1.174,3.593-.239.717-.486,1.458-.724,2.188a13.87,13.87,0,0,0-.518,2.076c.217-.339.434-.686.645-1.022.5-.806,1.024-1.636,1.577-2.421.726-1.03,1.525-2.014,2.348-3.016a3.489,3.489,0,0,1,2.488-1.251c.054,0,.11-.007.166-.007a3.163,3.163,0,0,1,2.68,1.689,6.15,6.15,0,0,1,.246,3.12v.007a34.745,34.745,0,0,1-1.392,6.382c-.345,1.209-.7,2.458-.971,3.707l-.1.441c-.563,2.6-1.145,5.289-1.644,7.949a32.58,32.58,0,0,0-.422,3.957c-.083,1.262-.106,2.549-.129,3.795q-.005.281-.01.561a4.342,4.342,0,0,0,.122,1,2.679,2.679,0,0,1-1.3,2.847,3.191,3.191,0,0,1-1.25.559,3.4,3.4,0,0,1-.461.035c-.956,0-1.316-.605-1.719-1.877a17.769,17.769,0,0,1-.526-6.862,68.185,68.185,0,0,1,2.488-13.366c.535-1.832,1.092-3.81,1.533-5.865-.225.3-.461.606-.689.9A21.146,21.146,0,0,0,49,14.145c-1.551,2.567-2.929,4.956-4.212,7.3a10.467,10.467,0,0,0-1.234,4.046c-.095.992-.235,2-.371,2.969-.1.689-.2,1.4-.278,2.1-.127,1.1-.205,2.193-.282,3.3-.048.722-.078,1.46-.107,2.174q-.015.374-.031.744l0,.037a1.851,1.851,0,0,0,.014.441c.1.549.128.887-.029,1.1-.124.167-.366.259-.809.307a10.489,10.489,0,0,1-1.163.059c-.647,0-1.308-.046-1.947-.09h-.01l-.351-.024c-.467-.03-.733-.383-.73-.968,0-.54,0-1.087,0-1.616,0-.952-.01-1.936.018-2.9.017-.592.089-1.173.166-1.789.034-.273.069-.553.1-.835-.08.162-.16.326-.238.484a13.584,13.584,0,0,1-2.9,4.4,3.252,3.252,0,0,0-.646.991,4.934,4.934,0,0,1-.433.76,6.29,6.29,0,0,1-1.053,1.025l-.124.1a7.369,7.369,0,0,1-.623.453c-.166.112-.337.227-.5.351a.951.951,0,0,1-.544.128,1.542,1.542,0,0,1-1.025-.331c-.329-.361-.638-.738-1-1.193a5.359,5.359,0,0,1-.944-2.877c-.014-.126-.019-.251-.025-.383a3.274,3.274,0,0,0-.1-.775c-.139.226-.283.452-.423.67-.314.491-.638,1-.913,1.522a7.012,7.012,0,0,1-3.176,3.028.648.648,0,0,1-.258.043,1.3,1.3,0,0,0-.152.011l-.346.052c-.38.056-.769.114-1.151.185a.472.472,0,0,0-.207.136.613.613,0,0,1-.047.042,5.335,5.335,0,0,1-3.328-3.046,15.167,15.167,0,0,1-.883-4.438c-.222.332-.445.67-.66,1-.478.725-.971,1.474-1.48,2.189a13.768,13.768,0,0,1-4.107,3.934A6.212,6.212,0,0,1,7.25,40ZM12.01,6.323c-.836.594-2.39,3.487-3.959,7.37S5.5,20.953,5.556,22.3C11.54,18.985,14.376,11.969,12.01,6.323Z" transform="translate(50 37)" fill="#fff"/><path d="M31.58,41c-1.191,0-2.168-.846-2.824-2.447a7.031,7.031,0,0,1-.372-1.6c-.015-.1-.03-.2-.045-.292-.071-.443-.109-.9-.143-1.3-.014-.169-.028-.328-.043-.482-.147.283-.29.573-.441.88a22.241,22.241,0,0,1-1.138,2.114,2.826,2.826,0,0,1-2.444,1.571c-.053,0-.108,0-.163,0a2.026,2.026,0,0,1-1.972-1.95c-.066-1.18-.131-2.361-.2-3.613-.188.29-.376.583-.557.866-.428.667-.831,1.3-1.262,1.927a6.49,6.49,0,0,1-3.342,2.927,3.382,3.382,0,0,1-.959.147A2.611,2.611,0,0,1,13.1,36.987a30.6,30.6,0,0,1,.915-8.4,2.433,2.433,0,0,0,.043-.542c0-.082,0-.16,0-.234l-.347.12c-.216.075-.439.153-.661.224a1.711,1.711,0,0,0-1.248,1.184A47.791,47.791,0,0,1,8.45,36.72a8.581,8.581,0,0,1-2.327,2.72.936.936,0,0,1-.386.134c-.081.017-.173.036-.271.063l-.082.324-.028.111a.524.524,0,0,0-.054.017.224.224,0,0,1-.063.017.025.025,0,0,1-.015,0,.993.993,0,0,0-.6-.225,2.144,2.144,0,0,0-.908.312l0,0a1.272,1.272,0,0,1-.57.129,1.621,1.621,0,0,1-1.209-.556,6.773,6.773,0,0,1-1.2-1.84,9.542,9.542,0,0,1-.716-3.959c.027-.591.031-1.194.035-1.778a26.751,26.751,0,0,1,.133-3,35.015,35.015,0,0,1,2.277-9.234c.612-1.48,1.364-2.93,2.091-4.332q.233-.45.465-.9a4.767,4.767,0,0,1,.945-1.21,1.207,1.207,0,0,1,.845-.381,1.21,1.21,0,0,1,1.049.733c.053.1.111.2.173.3l.055.093a2.215,2.215,0,0,1,1.51-.565,3.037,3.037,0,0,1,2.565,1.461,9.2,9.2,0,0,1,1.079,3.843l.009.188c.064,1.305.131,2.655.112,3.979a7.756,7.756,0,0,1-.2,1.444c-.046.223-.093.453-.13.68-.017.113-.03.225-.045.355-.009.073-.017.148-.027.23a1.814,1.814,0,0,0,1.584-1.34c.286-.916.571-1.848.846-2.749.484-1.583.984-3.22,1.506-4.819a16.835,16.835,0,0,1,1.155-2.57c.263-.494.559-.735.908-.735a1.259,1.259,0,0,1,.663.232A4.633,4.633,0,0,1,20.989,15.3c.121.192.069.592-.15,1.157a107.719,107.719,0,0,0-3.395,11.189l-.164.621c-.514,1.941-1.054,4.033-1.521,6.188a12.879,12.879,0,0,0-.21,2.375c0,.112-.006.218-.009.325a.555.555,0,0,0,.118.414.344.344,0,0,0,.258.1.793.793,0,0,0,.416-.139,13.02,13.02,0,0,0,1.828-1.444,24.393,24.393,0,0,0,1.783-1.945c.175-.205.333-.433.487-.654a5.332,5.332,0,0,1,.773-.949,5.018,5.018,0,0,0,1.368-3.305c.06-.407.122-.829.218-1.231.22-.918.413-1.859.6-2.77.282-1.378.574-2.8.966-4.171a32.967,32.967,0,0,1,1.757-4.444l.007-.015.228-.506c.187-.417.445-.628.769-.628a1.285,1.285,0,0,1,.7.259c1.089.739,1.589,1.4,1.112,2.787-.9,2.607-1.621,5.251-2.265,7.719-.7,2.675-1.328,5.414-1.938,8.062l-.006.025-.242,1.05a3.17,3.17,0,0,0-.032.865c.008.173.017.369.017.587.113-.1.222-.187.318-.264a1.642,1.642,0,0,0,.439-.435c.314-.548.618-1.114.911-1.661.484-.9.985-1.838,1.546-2.712A8.282,8.282,0,0,0,28.7,28.5c.053-.319.108-.648.173-.969.117-.578.23-1.168.34-1.738.289-1.508.589-3.067.99-4.569.957-3.582,2.06-7.456,3.47-12.191.705-2.368,1.5-4.751,2.268-7.056l.013-.04L36.264,1a1.329,1.329,0,0,1,1.32-1,2.193,2.193,0,0,1,.683.119,1.558,1.558,0,0,1,1.092,1.966q-.184.665-.365,1.33c-.472,1.727-.96,3.513-1.512,5.245l-.318.994-.007.023c-1.181,3.686-2.4,7.5-3.24,11.355-.183.842-.373,1.692-.556,2.514-.516,2.314-1.05,4.707-1.478,7.079a18.616,18.616,0,0,0-.037,7.034c.052.261.154.4.294.4a.476.476,0,0,0,.3-.158c.306-.286.608-.59.9-.883a17.639,17.639,0,0,1,1.79-1.642,1.619,1.619,0,0,0,.606-1.416c.006-.118.013-.24.026-.363l.043-.406c.175-1.651.356-3.359.645-5.019.386-2.218.838-4.363,1.342-6.375a18.547,18.547,0,0,1,1.919-5.2c.277-.459.539-.664.85-.664a1.7,1.7,0,0,1,.893.379,4.3,4.3,0,0,1,.8.778l.159.182a1.234,1.234,0,0,1,.13,1.3c-.154.477-.316.962-.472,1.43-.407,1.22-.828,2.482-1.163,3.743-.986,3.692-1.821,7.035-2.553,10.218a10.373,10.373,0,0,0-.186,2.133c-.006.326-.012.662-.032.99l.164.077c.172-.144.345-.287.519-.43l.005,0c.376-.309.764-.629,1.131-.96a6.426,6.426,0,0,0,1.586-2.96q.058-.176.115-.35c1.6-4.805,3.129-9.7,4.6-14.436.367-1.175.64-2.4.9-3.59l.04-.177c.149-.66.493-.967,1.084-.967q.052,0,.107,0c.061,0,.125,0,.2,0h.276a1.576,1.576,0,0,1,.639.1c1.245.537,1.666.885,1.13,2.424a41.1,41.1,0,0,0-1.3,4.453c.169-.265.336-.536.5-.8.366-.595.744-1.21,1.162-1.779a13.19,13.19,0,0,1,1.7-1.917,1.7,1.7,0,0,1,1.181-.471,2.182,2.182,0,0,1,.939.227,1.948,1.948,0,0,1,1.168,1.817,14.71,14.71,0,0,1-.68,4.418c-.109.416-.221.847-.32,1.273-.522,2.246-1.132,4.913-1.7,7.67a21.527,21.527,0,0,0-.383,6.032,2.272,2.272,0,0,1-.574,2.09,2.062,2.062,0,0,1-1.284.647,1,1,0,0,1-.455-.109,2.245,2.245,0,0,1-.929-1.372,17.866,17.866,0,0,1-.064-6.276,65.412,65.412,0,0,1,1.982-9.138c.16-.6.326-1.216.486-1.828-.158.218-.324.436-.485.647a16.292,16.292,0,0,0-.99,1.4l-.147.241c-.857,1.4-1.743,2.855-2.5,4.345a8.1,8.1,0,0,0-.89,3c-.092,1.121-.226,2.256-.356,3.354-.1.84-.2,1.707-.284,2.562a14.05,14.05,0,0,0-.009,2.062.76.76,0,0,1-.16.578.816.816,0,0,1-.6.208c-.289.009-.591.013-.9.013s-.605,0-.922-.012a.834.834,0,0,1-.61-.228.849.849,0,0,1-.194-.633c.021-.593.045-1.2.068-1.778.022-.535.044-1.088.063-1.632.007-.19,0-.38,0-.548,0-.072,0-.14,0-.2-.225.319-.45.649-.668.969-.515.756-1.046,1.536-1.636,2.249a6.5,6.5,0,0,1-1.993,1.752,2.092,2.092,0,0,1-.939.228c-.906,0-2-.657-2.084-2.511-.114.23-.213.445-.307.652a6.647,6.647,0,0,1-.609,1.141c-.08.112-.161.228-.242.344a4.951,4.951,0,0,1-1.42,1.544A3.416,3.416,0,0,1,31.58,41ZM5.6,21.765c-.027.052-.054.1-.08.142a1.261,1.261,0,0,0-.117.235c-.126.391-.257.787-.384,1.171-.329.993-.668,2.018-.947,3.042l-.036.133a26.562,26.562,0,0,0-.881,4.054,40.392,40.392,0,0,0-.15,4.62l0,.432a4.359,4.359,0,0,0,.38,1.544.9.9,0,0,0,.8.672,1.129,1.129,0,0,0,.65-.245,2.8,2.8,0,0,0,.872-.889c.156-.291.315-.584.47-.867a32.995,32.995,0,0,0,1.86-3.793,14.432,14.432,0,0,0,.682-2.924c.05-.309.1-.627.158-.937a.812.812,0,0,0-.274-.647C6.978,26.265,6.05,24.493,5.6,21.765Zm3.551-5a12.222,12.222,0,0,0,.624,7.782q.009-.4.021-.807A19.712,19.712,0,0,0,9.153,16.761Z" transform="translate(76 81)" fill="#fff"/><path d="M9.718,49.674l.266-2.181c-.051-.014-.1-.028-.151-.04-.19.645-.385,1.289-.566,1.938-.142.508-.336.877-1.04.358.208-1.185.395-2.444.655-3.687.7-3.336,1.432-6.663,2.147-10,.4-1.874.821-3.743,1.178-5.625.407-2.149.766-4.308,1.121-6.467.33-2.006.656-4.014.929-6.028q.287-2.1.417-4.226c.095-1.537.127-3.082.138-4.622.006-.895-.083-1.789-.133-2.759a13.278,13.278,0,0,0-3.66,4.06,62.964,62.964,0,0,0-3.269,5.748A61.353,61.353,0,0,0,2.955,29.366a11.612,11.612,0,0,0,.125,6.2c.344,1.082.623,1.664,2.62,1.844-.947.7-2.777.051-3.26-1.955a2.716,2.716,0,0,0,1.006,2.481,2.158,2.158,0,0,0,2.32.018,5.307,5.307,0,0,0,2.978-4.4c.018-.2.292-.385.447-.577.162.185.442.352.469.554.315,2.227-1.511,5.278-3.539,5.973A4.4,4.4,0,0,1,.588,36.73,11.546,11.546,0,0,1,.2,30.864c.517-3.077,1.084-6.152,1.764-9.2a63.721,63.721,0,0,1,3.9-11.7,20.716,20.716,0,0,1,4.251-6.522A5.179,5.179,0,0,1,13.79,1.655a11.771,11.771,0,0,1,2.42.117,3.66,3.66,0,0,1,2.748,3.351,26.486,26.486,0,0,1-.04,5.455c-.121,1.642-.453,3.268-.6,4.945.458-.978.914-1.959,1.377-2.934,1.28-2.681,2.551-5.368,3.85-8.039.655-1.346,1.375-2.661,2.039-4A.868.868,0,0,1,26.479,0,7.7,7.7,0,0,1,30.9,1.021,243.626,243.626,0,0,0,24.258,26.71c.244-.524.473-1.055.732-1.57.985-1.952,1.9-3.946,2.99-5.837,1.591-2.758,3.28-5.46,4.988-8.147.919-1.445,1.986-2.794,2.947-4.214a1.093,1.093,0,0,1,1.4-.336c1.117.346,2.2.8,3.294,1.217.438.168.471.418.27.871C38.8,13.353,36.692,18,34.71,22.706a73.951,73.951,0,0,0-2.7,7.527,41.875,41.875,0,0,0-.925,5.132,25.82,25.82,0,0,0-.546,3.711,15.254,15.254,0,0,0,.468,3.4c.1.449.871.46,1.476.075.553-.353,1.088-.732,1.636-1.095a4.29,4.29,0,0,1,.432-.206l-.332.57c.087,0,.167.025.205,0a3.841,3.841,0,0,1,.775-.628c.206-.09.505.036.764.064-.03.214.014.477-.1.631-1.2,1.663-2.74,2.723-4.873,2.43a3.143,3.143,0,0,1-2.356-2.152,9.444,9.444,0,0,1-.56-3.793,41.5,41.5,0,0,1,1.516-10.417c.813-3.372,1.8-6.7,2.714-10.052a5.262,5.262,0,0,0,.272-1.463C31.5,18,30.347,19.523,29.349,21.143c-1.7,2.766-3.384,5.555-4.937,8.411a22.2,22.2,0,0,0-2.25,6.893c-.136.8-.087,1.623-.161,2.433-.114,1.273-.272,2.541-.388,3.812-.084.917-.127,1.837-.193,2.755-.012.188-.05.374-.076.559h-.2V42.839l-.268-.008c-.074,1.266-.139,2.534-.231,3.8-.012.165-.157.45-.246.453a.653.653,0,0,1-.523-.247A1.935,1.935,0,0,1,19.7,46c-.015-1.641-.076-3.287.011-4.922.094-1.748.336-3.486.513-5.228.139-1.364.26-2.729.421-4.089.193-1.623.418-3.241.637-4.861q.279-2.063.579-4.122c.293-1.991.583-3.983.9-5.969.271-1.721.572-3.437.86-5.154a9.38,9.38,0,0,0,.171-1.56c-.421.727-.87,1.439-1.255,2.184-.787,1.527-1.56,3.059-2.3,4.608-.608,1.275-1.2,2.563-1.726,3.873-.4.986-.659,2.026-1.032,3.022-.7,1.878-1.49,3.721-2.14,5.614-.728,2.124-1.353,4.283-2,6.435-.493,1.639-.967,3.284-1.413,4.939-.288,1.064-.515,2.145-.751,3.22-.347,1.566-.678,3.133-1.014,4.7-.073.343-.133.689-.2,1.034-.081-.015-.164-.031-.245-.047" transform="translate(41 79)" fill="#fff"/><path d="M16.719,33l0,0a1.562,1.562,0,0,1-.253-1.168,1.659,1.659,0,0,0-.058-.742l-.288,1.72a1.443,1.443,0,0,0-.991-.411,1.473,1.473,0,0,0-.856.286,1.455,1.455,0,0,1,.252-1.2,1.624,1.624,0,0,0,.288-.885l-.081-.038-.1-.046c-.359.66-.723,1.331-1.108,2.041,0-.169-.005-.332-.01-.49a5.632,5.632,0,0,1,.024-.977c.014-.094.032-.187.049-.276a1.526,1.526,0,0,0-.154-1.282c-.146-.219.016-.662.159-1.053.041-.111.079-.216.111-.315a2.107,2.107,0,0,1,.3-.526c.062-.09.126-.184.191-.289l-.951.109c-.662.077-1.288.15-1.918.21-.325.032-.7.066-1.066.066a3.517,3.517,0,0,1-1.711-.377c-.982-.522-1.068-.692-.918-1.826-.067-.044-.136-.088-.206-.133-.166-.106-.337-.215-.5-.339a4.921,4.921,0,0,1-.4-.369c-.059-.057-.117-.115-.177-.171l-.038.025c-.034.022-.069.045-.1.065.161.271.322.542.536.9l-.707-.464L5.967,25c-1.7,1.394-3.688,3.392-3.9,6.491C1.8,30.406,2.3,28.734,3.434,26.9L.764,29.3,0,30.466a4.1,4.1,0,0,1,1.9-3.554l.077-.043a5.056,5.056,0,0,1,1.771-.712,2.4,2.4,0,0,0,1.428-.841,4.331,4.331,0,0,1,.627-.541c.067-.045.085-.216.051-.494-.016-.14-.035-.282-.054-.419a3.231,3.231,0,0,1,.189-2.124c.041-.076,0-.195-.035-.321a1.727,1.727,0,0,1-.053-.195l.442-.235.615-.327c.037.036.072.073.108.11l.06.061c-.887.215-1.033.94-1.059,1.622a2.607,2.607,0,0,0,.658,1.422l.123.172Q6.7,23.3,6.561,22.555l-.13-.689.068-.033.114-.056.088.2c.361.83.734,1.687,1.688,1.766a2.076,2.076,0,0,1,.608.2,1.982,1.982,0,0,0,.743.214c.326,0,.58-.19.8-.6a2.976,2.976,0,0,1-.779.11,2.729,2.729,0,0,1-2.193-1.222c-.345-.444-.656-.928-.338-1.525a.382.382,0,0,0-.052-.3L7.055,20.4a13.691,13.691,0,0,1-1.868-4.432A7.08,7.08,0,0,1,1.31,14.814l-.065-.045a2.619,2.619,0,0,1-.26-.2c-.362-.315-.52-.56-.51-.8s.175-.447.521-.7C1.757,12.52,2.527,12,3.342,11.46c.339-.227.689-.461,1.039-.7,0-.394-.008-.786-.016-1.2s-.017-.837-.017-1.26l.072.035C6.294,6.857,8.5,6.306,10.977,5.785c-1.557-.957-3.04-2.891-2.994-3.9l.144.11.227.174C8.4,1.285,8.671,1,9.624.824A8.149,8.149,0,0,1,11.072.7a13.288,13.288,0,0,1,2.845.355,1.967,1.967,0,0,1,1.559,2.209c-.02.176-.262.482-.419.488l-.372.018c-.633.032-1.288.064-1.932.064-.43,0-.817-.014-1.182-.044A7.112,7.112,0,0,1,9.981,3.4c-.231-.075-.469-.153-.705-.218l2.826,2.3c1.616-.083,3.482-.181,5.7-.3-.041-.078-.084-.162-.13-.25-.092-.179-.2-.382-.306-.576-.166-.293-.343-.586-.513-.87A18.914,18.914,0,0,1,15.818,1.61,1.67,1.67,0,0,0,14.477.545a9.708,9.708,0,0,0-1.143-.1L13.2.437c-.376-.019-.76-.025-1.131-.031A14.841,14.841,0,0,1,9.711.242,2.532,2.532,0,0,0,9.262.2,3.581,3.581,0,0,0,5.972,2.374l-.009.03a.292.292,0,0,0-.018.1v.025a2.907,2.907,0,0,1-.681,2.485,4.52,4.52,0,0,0-.808,2.171c-.033.167-.067.34-.1.508.009-.394.028-.739.055-1.057a15.2,15.2,0,0,1,.553-2.666c.047-.174.093-.345.138-.515a3.443,3.443,0,0,1,.575-1.122c.294-.392.624-.766.944-1.128.133-.15.271-.306.4-.461A2.346,2.346,0,0,1,8.95,0c.142,0,.293,0,.491.015.571.029,1.151.056,1.711.082.609.028,1.238.057,1.859.089.141.007.286.009.426.011a4.1,4.1,0,0,1,1.115.115,2.309,2.309,0,0,1,1.214.747C16.41,2.111,16.99,3.184,17.6,4.32c.237.438.481.89.731,1.343.2.013.4.025.619.037.483.027.979.056,1.481.105a2.455,2.455,0,0,1,2.04,1.133,2.349,2.349,0,0,1-.19,2.23,8.563,8.563,0,0,1-1.022,1.393c-.2.237-.406.481-.592.731a1.112,1.112,0,0,0-.275.614,6.44,6.44,0,0,1-.78,2.893c-.123.274-.249.557-.361.839-.065.165-.278.276-.484.383a2.837,2.837,0,0,0-.278.158l-.117-.127-.1.345-.092.324A11.527,11.527,0,0,1,25,21.172l-.074.09-.065.079c-.067-.064-.144-.126-.218-.185a1.4,1.4,0,0,1-.4-.423,2.849,2.849,0,0,0-1.4-1.423,1.279,1.279,0,0,1-.426-.41c-.042-.054-.085-.111-.129-.162a1.623,1.623,0,0,0-1.309-.583,2.686,2.686,0,0,0-.307.018l0-.006c-.4.236-.363.588-.33.927a1.425,1.425,0,0,1-.013.536.56.56,0,0,0,.441.272,1.058,1.058,0,0,0,.486-.184,1.09,1.09,0,0,1,.5-.187.455.455,0,0,1,.1.01c-.711,1.281-.842,1.4-1.754,1.6l.064-.052,1.018-.832c-.025-.04-.053-.08-.08-.119l-.027-.04c-.147.093-.3.185-.446.273a9.89,9.89,0,0,0-1.038.686,6.358,6.358,0,0,0-.747.745c-.126.139-.256.283-.4.437l.6-.118.6-.118c-.275.268-.6.586-.969.94l-.258.25c-.066-.153-.121-.276-.18-.407l-.083-.187c-.082.051-.164.106-.243.16a2.68,2.68,0,0,1-.658.363h-.01c-.061,0-.173-.155-.291-.32-.06-.084-.122-.17-.181-.24l-.73.815c-.04-.212-.071-.377-.1-.524v-.006l0-.009-.054-.29-.136.129-.008.008-.9.851c-.131-.251-.225-.432-.323-.621l-.091-.177c-.3.342-.565.651-.823.951,0,.049.011.095.018.141l.008.052h5.876v.211H14.977l0,.034c0,.025,0,.05-.008.074l1.013.086.085.007c0,.041,0,.081-.005.123H13.2a4.944,4.944,0,0,0,2.132.454c.221,0,.454-.011.713-.035.565-.05,1.122-.1,1.712-.146l.022,0,1.066-.09-.023.154c-.018.123-.038.256-.058.389h-.04c-.085,0-.173-.007-.255-.014s-.17-.013-.252-.013a.7.7,0,0,0-.651.339c-.007.011-.022.016-.047.016a1.027,1.027,0,0,1-.2-.04l-.028-.007a1.194,1.194,0,0,0-.269-.047h-.008c-.735.017-1.4.061-2.038.137l.306.044.242.035.009.058.009.058c-.049.014-.1.031-.146.048a1.222,1.222,0,0,1-.314.078l-.458.028h-.011c-.68.042-1.384.086-2.076.09l-.344,0c-.134,0-.268,0-.4,0a3.946,3.946,0,0,1-2.34-.563.711.711,0,0,0-.392-.146c-.231,0-.394.187-.473.542a4.872,4.872,0,0,0,2.47.541c.34,0,.679-.017.966-.034.39-.022.785-.049,1.167-.076l.424-.029c0,.028.009.057.014.086s.009.057.014.085l-.163.1-.283.167.263.044.132.022V26.7c0,.021,0,.041.006.061h-.162c-.036,0-.066,0-.095,0l-.718.048c-.748.049-1.522.1-2.283.163-.064.005-.127.008-.189.008A2.671,2.671,0,0,1,8.1,25.791a1.1,1.1,0,0,0,1,1.416,6.9,6.9,0,0,0,1.428.14,17.173,17.173,0,0,0,2.753-.3l.037-.006.032-.005c1.8-.294,3.657-.6,5.488-.872.445-.067.9-.1,1.342-.131.2-.014.4-.029.607-.046L20.781,26H22.3a1.764,1.764,0,0,0-.681,1.133,1.175,1.175,0,0,0,.122.9c.067.093.152.261.112.341-.158.326-.335.64-.523.973-.061.109-.123.217-.185.329-.374-.216-.271-.49-.171-.756.076-.2.155-.413.022-.6l-.472.075-.246.04c.04-.209.076-.389.114-.587l0,0h0l.08-.408c-.359.077-.724.163-1.076.247a19.731,19.731,0,0,1-2.675.506,3.98,3.98,0,0,0-1.435.443,1.587,1.587,0,0,0-.324.228c-.052.043-.105.087-.163.131-.023-.064-.055-.154-.092-.256l-.077-.215a1.733,1.733,0,0,1-.323.146c-.312.117-.636.237-.545.717a5.272,5.272,0,0,0,.3.924c.051.131.1.255.141.378l.665-.331.621-.31c-.053.33-.1.605-.138.856l-.083.515.044.011.03.007.407-.99.106-.259.644.144.532.119c-.077.63-.172,1.416-.308,2.551ZM2.39,26.846A3.989,3.989,0,0,0,.464,28.793l-.014.033c-.057.136-.135.322-.069.421a.2.2,0,0,0,.178.069.9.9,0,0,0,.2-.027c.017-.078.028-.162.039-.242a1.127,1.127,0,0,1,.156-.528c.291-.388.622-.758.973-1.149C2.075,27.2,2.229,27.031,2.39,26.846Zm17.468.116a1.759,1.759,0,0,1,1.13.368.1.1,0,0,0,.061.016.506.506,0,0,0,.1-.013.42.42,0,0,1,.061-.01c.184-.4.35-.752.556-1.2-.323-.042-.635-.081-.982-.122-.2.4-.557.4-.9.4a2.473,2.473,0,0,0-.351.018c-.47.072-.95.134-1.414.2-.372.049-.755.1-1.131.153a.8.8,0,0,0-.244.1c-.037.019-.075.039-.113.056l.067.122.06.109c.17,0,.343,0,.51.008s.339.008.508.008c.23,0,.42-.007.6-.023.2-.018.4-.052.6-.085A5.468,5.468,0,0,1,19.859,26.962ZM13.813,25.2h0a3.316,3.316,0,0,0-.858.166l-.163.045.719.045,1.068.067a1.035,1.035,0,0,0-.765-.323Zm-.942-.564-.354.086c-.432.106-.861.21-1.29.317l.075.328.684-.178.961-.249-.043-.169,0-.007ZM7.835,24.1l-.292.377-.005.007-.167.215c.111.145.225.3.357.473l.04-.041c.207-.212.4-.413.382-.626a.609.609,0,0,0-.315-.4Zm.81.4c0,.041,0,.082.006.123s0,.079.006.117c.21,0,.423,0,.63.007s.42.007.629.007c.31,0,.564-.008.8-.025.459-.033.922-.111,1.369-.187H12.1l.242-.041h.345l.011-.057c-.122.018-.243.038-.356.057ZM7,13.751l-.048.025c-.138.073-.347.184-.562.291-.481.239-.764.528-.581,1.159.158.542.288,1.1.413,1.647a20.882,20.882,0,0,0,.643,2.359c.561,1.56,1.334,3.084,3.175,3.673.084.027.168.059.249.09a2.156,2.156,0,0,0,.579.161c.026,0,.052,0,.079,0a2.386,2.386,0,0,0,.5-.077c.105-.023.214-.048.336-.068a1.551,1.551,0,0,1,.191.02,2.138,2.138,0,0,0,.29.027A.434.434,0,0,0,12.533,23a11.48,11.48,0,0,0,1.575-1.449c.6-.66,1.18-1.35,1.745-2.018.277-.327.563-.665.848-1,.088-.1.19-.2.289-.3a2.105,2.105,0,0,0,.492-.6c.241-.539.429-1.1.611-1.647.071-.214.145-.435.219-.646.219.231.393.343.534.343s.269-.13.362-.4c.333-.961.657-2.033,1.022-3.372.053-.2-.062-.591-.184-.632a1.03,1.03,0,0,0-.313-.045.754.754,0,0,0-.476.134,10.08,10.08,0,0,0-.941.972c-.116.131-.236.267-.357.4.027.028.054.058.08.087l.035.038-.219-.026-.241-.031-.082-.475c-.059-.34-.117-.677-.179-1.039a3,3,0,0,1-.321.018,2.052,2.052,0,0,1-1.785-.995,1.56,1.56,0,0,0-1.154-.4c-.04,0-.08,0-.117,0s-.093,0-.137,0a.819.819,0,0,1-.873-.568c-.116-.308-.27-.457-.469-.457a.993.993,0,0,0-.521.215c-.082.055-.168.109-.25.161a5.058,5.058,0,0,0-.477.327.543.543,0,0,0-.207.361,1.314,1.314,0,0,1-.267.974,1.241,1.241,0,0,1-.923.263l-.134,0H9.67a3.215,3.215,0,0,0-.908.185c-.144.044-.292.089-.439.123.08.171.124.2.159.219l.013.008c.089.057.206.127.319.195.262.157.534.318.516.359-.081.192-.192.282-.348.282a1.073,1.073,0,0,1-.357-.093,1.539,1.539,0,0,0-.267-.084,1.146,1.146,0,0,0-.2-.017,1.793,1.793,0,0,0-1.216.546,1.037,1.037,0,0,0-.333.731,1.9,1.9,0,0,1,1.568-.758c.117-.015.238-.031.355-.051a1.835,1.835,0,0,1,.3-.029.4.4,0,0,1,.333.117c.085.11.086.3,0,.624l-.491-.257-.011-.006-.129-.068c-.085.106-.158.215-.223.312-.138.206-.247.369-.395.413a.441.441,0,0,1-.125.017,1.61,1.61,0,0,1-.469-.109C7.219,13.814,7.111,13.778,7,13.751Zm10.524,6.269a3.336,3.336,0,0,0-1.969,2.308Zm1.506.309h0c-.649.645-1.217,1.21-1.786,1.773l.146.1a3.2,3.2,0,0,0,.229-.234,1.213,1.213,0,0,1,.52-.4c.736-.182,1.04-.4.89-1.238ZM20.1,17.417l-.535.735-.636.873L19.99,18.5l.67-.331c-.122-.16-.243-.321-.375-.5Zm-5.7-10.763a48.087,48.087,0,0,0-13.35,6.732c.095.007.2.011.309.011a7.834,7.834,0,0,0,2.738-.654,34.363,34.363,0,0,0,6.481-3.559l.345-.223c.792-.511,1.625-.99,2.43-1.454.377-.217.766-.441,1.146-.665C14.458,6.78,14.424,6.717,14.391,6.654ZM4.348,8.3h0l-.129-.061c.046-.156.089-.33.137-.548,0,.175-.007.368-.007.608Z" transform="translate(11 52)" fill="#fff"/><path d="M4.538,5.571c-.068-.142-.1-.215-.136-.279a14.478,14.478,0,0,1-.6,2.252A10.688,10.688,0,0,1,2.474,9.7,1.092,1.092,0,0,1,.825,9.5c-.107-.144-.237-.272-.4-.463l.467-.208C-.056,8.9.316,8.073,0,7.656l.43.1c-.015-.127.015-.293-.053-.375-.249-.3-.281-.444.033-.8a1,1,0,0,0,.1-1.374c-.081-.086-.013-.313-.013-.4.141-.059.356-.1.358-.156A4.223,4.223,0,0,1,1.717,1.7,9.379,9.379,0,0,1,2.9.413C3.61-.272,4.249-.092,4.584.86a6.544,6.544,0,0,1-.046,4.711" transform="translate(117 86)" fill="#fff"/><path d="M12.977,9.026c-.8,2.565-4,4.128-6.606,3.962A6.485,6.485,0,0,1,5.488.1C9.56-.437,11.908,1.311,13,4.02a.835.835,0,0,1-1.153-.44A6.155,6.155,0,0,0,4.882,1.143,5.775,5.775,0,0,0,.97,7.183a6.008,6.008,0,0,0,4.76,4.832A6.2,6.2,0,0,0,11.757,9.48c.382-.605.382-.605,1.22-.454" transform="translate(50 131)" fill="#fff"/><path d="M4.477,9c-.06,0-.119,0-.177,0A4.578,4.578,0,0,1,1.148,7.427,4.286,4.286,0,0,1,.008,4.34,4.764,4.764,0,0,1,4.48,0c.058,0,.117,0,.174,0A4.511,4.511,0,0,1,9,4.579H1.076a3.028,3.028,0,0,0,.773,2.214A3.261,3.261,0,0,0,4.02,8.025c.145.01.289.016.426.016a3.522,3.522,0,0,0,3.4-2.047c.076-.149.289-.229.535-.322a4.076,4.076,0,0,0,.389-.162A4.345,4.345,0,0,1,4.477,9ZM4.418.983H4.333a3.334,3.334,0,0,0-3.309,2.6H7.894A3.381,3.381,0,0,0,4.418.983Z" transform="translate(88 135)" fill="#fff"/><path d="M4.447,9c-.08,0-.162,0-.244-.006A4.27,4.27,0,0,1,1.077,7.4,4.492,4.492,0,0,1,4.466.008a5.357,5.357,0,0,1,3.6,1.542V0H9V8.98H8.079V7.349A4.8,4.8,0,0,1,4.447,9ZM4.514.936A3.552,3.552,0,0,0,1.973,1.96,3.569,3.569,0,0,0,.952,4.508,3.486,3.486,0,0,0,4.524,8.06h.011a3.465,3.465,0,0,0,3.53-3.533A3.594,3.594,0,0,0,7.041,1.952,3.524,3.524,0,0,0,4.52.936Z" transform="translate(97 135)" fill="#fff"/><path d="M4.493,9a4.721,4.721,0,0,1-.971-.1A4.243,4.243,0,0,1,1,7.3a4.45,4.45,0,0,1,.33-5.992A4.393,4.393,0,0,1,4.425,0,5.36,5.36,0,0,1,8.016,1.572V0H9V8.98H8.047V7.346A5.046,5.046,0,0,1,4.493,9ZM4.464.949H4.45a3.49,3.49,0,0,0-3.5,3.537A3.563,3.563,0,0,0,1.969,7.037,3.528,3.528,0,0,0,4.492,8.048,3.511,3.511,0,0,0,7,7.039a3.574,3.574,0,0,0,1.017-2.56A3.469,3.469,0,0,0,4.464.949Z" transform="translate(73 135)" fill="#fff"/><path d="M.929,13H0V0H.918V5.7A5.233,5.233,0,0,1,3.978,4.094a4.433,4.433,0,0,1,4.9,3.487,5.58,5.58,0,0,1,.114.794C9,9.9,9,11.418,9,12.985H8.032c0-1.491,0-2.984,0-4.48A3.446,3.446,0,0,0,4.286,4.959,3.455,3.455,0,0,0,.929,8.336c0,1.541,0,3.083,0,4.664" transform="translate(63 131)" fill="#fff"/><path d="M9,9H8.077V7.373a4.985,4.985,0,0,1-3.03,1.573A4.278,4.278,0,0,1,.1,5.37,48.384,48.384,0,0,1,.061.011H.913C.913,1.485.963,2.945.9,4.4A3.547,3.547,0,0,0,3.663,8.007,3.8,3.8,0,0,0,7.837,5.928,2.863,2.863,0,0,0,8.066,4.81C8.1,3.257,8.084,1.7,8.091.149c0-.04.035-.079.069-.149H9Z" transform="translate(107 135)" fill="#fff"/><g transform="translate(123 134)"><path d="M0,0H8.83V9.24H0Z" transform="translate(0.853 0.751)" fill="none"/><g clip-path="url(#a)"><path d="M8.777,9.24H7.931c0-1.543,0-3.059,0-4.573A3.5,3.5,0,0,0,5.266,1.021,3.6,3.6,0,0,0,1.126,3.14,3.094,3.094,0,0,0,.91,4.293C.888,5.927.9,7.561.9,9.231H0V.034H.9V1.706A5.055,5.055,0,0,1,3.783.054a4.4,4.4,0,0,1,4.96,3.673c.176,1.8.034,3.634.034,5.513" transform="translate(0.853 0.751)" fill="#fff"/></g></g><path d="M.043,0H1.051V3.86H4.912v.95H1.1C1.1,6.345,1,7.8,1.123,9.248a3.555,3.555,0,0,0,3.342,2.845c.166.014.333.019.535.03V13A4.537,4.537,0,0,1,.079,8.87C-.075,5.939.043,2.995.043,0" transform="translate(82 131)" fill="#fff"/><path d="M3.323,9a1.754,1.754,0,0,1-.313-.028.438.438,0,0,1-.062-.362c.042-.095.154-.161.387-.228,1.61-.471,2.141-1.341,1.9-3.105a4.919,4.919,0,0,1-2.486.875A2.576,2.576,0,0,1,.685,5.063,3.152,3.152,0,0,1,0,3.036a3.131,3.131,0,0,1,.741-2A2.558,2.558,0,0,1,2.724.015,4.953,4.953,0,0,1,5.295.979V.064L5.478.045,5.918,0c.01.04.022.075.033.109a.613.613,0,0,1,.041.183l0,.577c0,1.8.01,3.649,0,5.472A2.985,2.985,0,0,1,3.323,9ZM3.029.591H3A2.516,2.516,0,0,0,.719,3.074,2.592,2.592,0,0,0,1.492,4.89,2.156,2.156,0,0,0,3,5.571h.048A2.5,2.5,0,0,0,3.029.591Z" transform="translate(30 3)" fill="#fff"/><path d="M7.988,6.321A4.226,4.226,0,0,1,3.424,8.943,4.534,4.534,0,0,1,0,4.609,4.508,4.508,0,0,1,3.426.066,4.029,4.029,0,0,1,8,2.715c-.361.2-.61.17-.816-.27A3.532,3.532,0,0,0,3.175.779,4.132,4.132,0,0,0,.655,4.653,3.857,3.857,0,0,0,3.476,8.247,3.279,3.279,0,0,0,7.091,6.661c.216-.33.4-.679.9-.34" fill="#fff"/><path d="M0,0H1.067V8.213c0,2.4,1.249,3.675,3.933,3.954v.82A4.681,4.681,0,0,1,.14,9.407,8.6,8.6,0,0,1,.008,7.938C-.006,5.316,0,2.692,0,0" transform="translate(116 131)" fill="#fff"/><path d="M.019,0H.647A1.008,1.008,0,0,1,.71.221c.006.91,0,1.82.008,2.73a2.407,2.407,0,0,0,2.3,2.607,2.5,2.5,0,0,0,2.275-2.65C5.221,1.96,5.28,1,5.28.013h.692c0,2.178.077,4.332-.027,6.477a2.876,2.876,0,0,1-3.171,2.5c.219-.254.322-.485.482-.542,1.654-.587,2.1-1.269,2.006-2.99a12.987,12.987,0,0,1-2.467.67A2.817,2.817,0,0,1,.032,3.5C-.031,2.36.019,1.211.019,0" transform="translate(52 3)" fill="#fff"/><path d="M2.97,6a2.726,2.726,0,0,1-.845-.131,3.139,3.139,0,0,1-2.1-3.3A3.18,3.18,0,0,1,2.918.005C2.971,0,3.026,0,3.08,0A3.1,3.1,0,0,1,6,3.045H.787A2.359,2.359,0,0,0,2.677,5.387a1.6,1.6,0,0,0,.355.04A2.619,2.619,0,0,0,5.1,4.087a.687.687,0,0,1,.34-.209A1.888,1.888,0,0,0,5.618,3.8a1.817,1.817,0,0,0,.03.193.676.676,0,0,1,0,.389A3.008,3.008,0,0,1,2.97,6ZM3.1.605l-.092,0a2.634,2.634,0,0,0-1.762.867A1.4,1.4,0,0,0,.854,2.488H5.187A2.231,2.231,0,0,0,3.1.605Z" transform="translate(65 3)" fill="#fff"/><path d="M2.866,6a2.427,2.427,0,0,1-.593-.071A3.139,3.139,0,0,1,0,2.883,3.105,3.105,0,0,1,2.3.072,3.476,3.476,0,0,1,3,0,3.029,3.029,0,0,1,6,3.034H.752A2.378,2.378,0,0,0,2.67,5.36a1.564,1.564,0,0,0,.336.036,2.638,2.638,0,0,0,2.05-1.284.8.8,0,0,1,.372-.235,2.126,2.126,0,0,0,.2-.091A2.08,2.08,0,0,0,5.645,4a.785.785,0,0,1-.027.431A3.242,3.242,0,0,1,2.866,6ZM3.1.6c-.041,0-.083,0-.124,0A2.22,2.22,0,0,0,.823,2.475H5.185A2.258,2.258,0,0,0,3.1.6Z" transform="translate(23 3)" fill="#fff"/><path d="M2.975,6A3.078,3.078,0,0,1,.045,3.487,3.181,3.181,0,0,1,2.249.113,2.888,2.888,0,0,1,3.051,0,3.086,3.086,0,0,1,5.3,1.005a2.574,2.574,0,0,1,.682,2H.74A2.537,2.537,0,0,0,2.5,5.272a2.089,2.089,0,0,0,.544.07A2.379,2.379,0,0,0,5.029,4.3a.833.833,0,0,0,.065-.156.388.388,0,0,1,.119-.21A1.237,1.237,0,0,1,5.592,3.8c.055-.013.111-.026.165-.041,0,.051.012.106.02.158a.648.648,0,0,1,0,.328,2.865,2.865,0,0,1-2.24,1.7A2.8,2.8,0,0,1,2.975,6ZM3.105.623c-.046,0-.092,0-.137.006A2.227,2.227,0,0,0,.875,2.4H5.3A2.549,2.549,0,0,0,3.105.623Z" transform="translate(71 3)" fill="#fff"/><path d="M2.957,6a2.666,2.666,0,0,1-.829-.127,3.181,3.181,0,0,1-2.1-3.278,3.063,3.063,0,0,1,1-1.845A2.916,2.916,0,0,1,2.954,0H2.96A3.114,3.114,0,0,1,5.238.9,2.792,2.792,0,0,1,6,2.992H.8a2.386,2.386,0,0,0,1.84,2.356,1.671,1.671,0,0,0,.415.052A2.605,2.605,0,0,0,5.135,4.093a.837.837,0,0,1,.373-.254,2.171,2.171,0,0,0,.2-.1c0,.071.006.147.013.22a.88.88,0,0,1-.03.447A3.07,3.07,0,0,1,2.957,6ZM3.093.582c-.045,0-.091,0-.135.006A2.214,2.214,0,0,0,.866,2.378H5.283A2.542,2.542,0,0,0,3.093.582Z" transform="translate(36 3)" fill="#fff"/><path d="M3.224,6a2.026,2.026,0,0,1-.249-.015A2.936,2.936,0,0,1,0,2.965,2.845,2.845,0,0,1,.857.927,3,3,0,0,1,2.922,0c.046,0,.092,0,.137,0A3.018,3.018,0,0,1,6,3.012a2.965,2.965,0,0,1-.872,2.113A2.727,2.727,0,0,1,3.224,6ZM2.989.59A2.457,2.457,0,0,0,.712,2.957a2.467,2.467,0,0,0,.724,1.758A2.226,2.226,0,0,0,3,5.421H3a2.455,2.455,0,0,0,2.285-2.4A2.469,2.469,0,0,0,3.031.59Z" transform="translate(9 3)" fill="#fff"/><g transform="translate(46)"><path d="M0,0H6.065V8.981H0Z" transform="translate(0.015 0.387)" fill="none"/><g clip-path="url(#b)"><path d="M0,0H.643V8.391H5.916l.148.169c-.129.14-.256.4-.386.4C3.8,8.989,1.924,8.98,0,8.98Z" transform="translate(0.015 0.387)" fill="#fff"/></g></g><path d="M6,3.944a3.05,3.05,0,0,1-3.431,2.03A3.184,3.184,0,0,1,0,3.206,3.121,3.121,0,0,1,2.444.047,2.894,2.894,0,0,1,5.861,1.961a2.443,2.443,0,0,1-.781-.4A2.524,2.524,0,0,0,2.173.838,2.475,2.475,0,0,0,.758,3.322,2.47,2.47,0,0,0,3.01,5.378,2.641,2.641,0,0,0,5.1,4.438,3.457,3.457,0,0,1,6,3.944" transform="translate(59 3)" fill="#fff"/><path d="M0,143H133V0H0Z" transform="translate(0 1)" fill="none"/><g clip-path="url(#c)"><path d="M.18,9H.82V0H.18Z" transform="translate(122 135)" fill="#fff"/><path d="M.01,0h.6A1.746,1.746,0,0,1,.664.318C.67,2.08.667,3.84.67,5.6a2.545,2.545,0,0,0,1.915,2.83A1.642,1.642,0,0,1,3,8.755C2.823,8.841,2.645,9,2.469,9A2.915,2.915,0,0,1,.021,6.276C-.019,4.214.01,2.149.01,0" transform="translate(20)" fill="#fff"/><path d="M.012,0H.67c0,1.3-.009,2.58,0,3.863A24.4,24.4,0,0,0,.768,6.451,2.172,2.172,0,0,0,2.478,8.4,1.906,1.906,0,0,1,3,8.778c-.225.077-.461.247-.675.219a2.964,2.964,0,0,1-2.3-2.665C-.022,4.249.012,2.163.012,0" transform="translate(16)" fill="#fff"/><path d="M6,1.913a2.527,2.527,0,0,1-2.438-.579.745.745,0,0,0-1.151.023A2.459,2.459,0,0,1,0,1.9C.994,1.241,1.907.623,2.831.036a.445.445,0,0,1,.418.041C4.14.655,5.021,1.255,6,1.913" transform="translate(74 132)" fill="#fff"/><path d="M.266,0c.289.274.682.506.67.66-.054.739.114,1.6-.3,2.185A.48.48,0,0,1,.2,3C.152,3,.1,2.729.07,2.572a1.252,1.252,0,0,1,.011-.31C.138,1.566.2.87.266,0" transform="translate(29 82)" fill="#fff"/><path d="M0,5c.042-.163.057-.454.129-.471,1.528-.4,2.1-2.074,3.156-3.092C3.744.993,4.19.529,4.65.088,4.712.026,4.829.039,5,0a1.692,1.692,0,0,1-.144.324c-1.123,1.294-2.24,2.592-3.38,3.864-.162.181-.436.226-.654.344C.545,4.681.273,4.842,0,5Z" transform="translate(15 80)" fill="#fff"/><path d="M.717,3l-.2-.506a1.232,1.232,0,0,1-.07.3C.384,2.884.3,3,.234,3,.188,3,.092,2.809.1,2.72c.066-.849.147-1.7.231-2.539C.334.128.395.089.462,0,.513.192.554.346.6.511.653.369.708.226.763.086L.9.108V2.9c-.062.032-.124.063-.186.1" transform="translate(30 82)" fill="#fff"/><path d="M2,.5C1.5.72,1.16.982.9.958A2.557,2.557,0,0,1,0,.5,2.585,2.585,0,0,1,.9.042c.262-.023.6.24,1.1.46" transform="translate(122 131)" fill="#fff"/><path d="M.259.326,1.337.21,2,.491C1.869.8.937.894,0,.663.1.542.189.426.281.309L.259.326" transform="translate(30 77)" fill="#fff"/><path d="M.007.008C.517-.069.736.38.993,1.952.553,2.176.272,1.632.007.008" transform="translate(27 2)" fill="#fff"/><path d="M.024,1.987C.145.681.508-.079.975.007c-.169,1.37-.52,2.1-.951,1.981" transform="translate(66 1)" fill="#fff"/><path d="M.409,0c.425.874.36,1.9-.1,2C.339,1.371.37.758.409,0" transform="translate(31 82)" fill="#fff"/><path d="M.876,0C.682,1.011.486,2.033.3,3-.147,2.328.334.96.876,0" transform="translate(14 80)" fill="#fff"/><path d="M.582.91c-.457.156-.205.542-.1.828.145.384.326.734.492,1.1L.81,3A16.292,16.292,0,0,1,.029.929C-.027.7.311.245.563,0c-.1.2-.2.406-.327.661C.364.752.473.833.582.912Z" transform="translate(14 83)" fill="#fff"/><path d="M.035.951C-.111.452.2.155,1,.049l-.965.9" transform="translate(33 74)" fill="#fff"/><path d="M.616,0V1.991C.561,2,.507,2,.452,2Q.417,1.008.384.015L.616,0" transform="translate(32 83)" fill="#fff"/><path d="M.894.333a6.613,6.613,0,0,1-.5.437A.316.316,0,0,1,.148.782C.114.688.082.536.131.481.322.273.534.048.894.333" transform="translate(31 74)" fill="#fff"/><path d="M.874.268.126.8C.157.231.324.1.874.268" transform="translate(33 73)" fill="#fff"/><path d="M1.165,1.442,2.843.9C2.835.832,2.826.77,2.819.706L0,1.108C.084.7.088.707,1.07.307A2.211,2.211,0,0,1,4,.871L3.438,1.1l.463.472c-.014.039-.028.078-.042.118l-1-.287c-.343.794-.343.794-1.7.044" transform="translate(22 63)" fill="#fff"/><path d="M0,1.85C.981,1.384,1.822.959,2.679.59a5.679,5.679,0,0,1,.989-.2C4.2.267,4.731.1,5.268.011A2.533,2.533,0,0,1,6,.089c-.007.075-.014.149-.02.224C4.166.876,2.354,1.445.537,1.991.4,2.033.236,1.918,0,1.85" transform="translate(20 70)" fill="#fff"/><path d="M0,.4A9.137,9.137,0,0,1,1.387.09C1.578.077,1.8.319,2,.445,1.851.57,1.7.8,1.553.8,1.086.794.55,1.129.152.658A1.681,1.681,0,0,1,0,.4" transform="translate(22 71)" fill="#fff"/><path d="M.012,1.8C.1,1.216.2.635.3,0L.988.9C.693,1.278.41,1.64.126,2L.012,1.8" transform="translate(30 64)" fill="#fff"/><path d="M.467,2C.4,1.448.332.9.24.145L.688,0A6.992,6.992,0,0,1,.756.94,9.9,9.9,0,0,1,.593,2Z" transform="translate(31 63)" fill="#fff"/><path d="M.741,1.215.425,3,.259,2.935Q.453,1.466.647,0L.688.017C.7.407.723.8.741,1.215" transform="translate(20 68)" fill="#fff"/><path d="M.281.068c.208.337.37.6.532.865C.5.743-.028.692.281.068" transform="translate(23 64)" fill="#fff"/><path d="M.083.506.854.279l.063.2L.145.721C.124.649.1.578.083.506" transform="translate(22 68)" fill="#fff"/></g></svg>